<?xml version="1.0" encoding="UTF-8" standalone="no"?>
<?xml-stylesheet type="text/css" href="../css/style.css"?>
<!DOCTYPE svg PUBLIC "-//W3C//DTD SVG 20010904//EN"
              "http://www.w3.org/TR/2001/REC-SVG-20010904/DTD/svg10.dtd">

<svg xmlns="http://www.w3.org/2000/svg" viewBox="0 0 2880 1800" preserveAspectRatio="xMinYMin" id = 'test'>



                <path id="Selection" fill="none" stroke="black" stroke-width="4" d="M 1788.00,573.63
           C 1825.90,578.39 1856.94,611.36 1857.00,650.00
             1857.00,650.00 1857.00,854.00 1857.00,854.00
             1856.96,877.65 1844.62,900.16 1826.00,914.35
             1820.35,918.65 1813.64,922.40 1807.00,924.94
             1804.27,925.98 1796.24,928.05 1794.60,929.72
             1792.65,931.71 1793.01,935.41 1793.00,938.00
             1793.00,938.00 1793.00,960.00 1793.00,960.00
             1792.98,963.59 1793.12,965.98 1790.69,968.94
             1789.44,970.46 1787.85,971.72 1786.00,972.40
             1783.60,973.29 1771.40,973.29 1769.00,972.40
             1767.48,971.84 1766.29,971.00 1765.15,969.85
             1761.70,966.41 1762.01,963.47 1762.00,959.00
             1762.00,959.00 1762.00,936.00 1762.00,936.00
             1761.95,933.35 1762.06,930.72 1759.69,928.98
             1759.69,928.98 1747.00,924.40 1747.00,924.40
             1739.54,921.37 1733.24,917.65 1727.00,912.54
             1708.21,897.13 1698.04,874.13 1698.00,850.00
             1698.00,850.00 1698.00,653.00 1698.00,653.00
             1698.05,622.64 1714.72,595.01 1742.00,581.37
             1751.96,576.39 1760.24,574.99 1771.00,573.63
             1777.98,572.57 1781.21,573.03 1788.00,573.63 Z
           M 544.00,575.00
           C 544.00,575.00 561.58,654.00 561.58,654.00
             561.58,654.00 603.21,842.00 603.21,842.00
             603.21,842.00 615.00,895.00 615.00,895.00
             615.00,895.00 619.61,918.00 619.61,918.00
             618.97,925.96 612.64,927.99 606.00,928.00
             606.00,928.00 590.00,928.00 590.00,928.00
             590.00,928.00 574.58,858.00 574.58,858.00
             574.58,858.00 567.00,822.00 567.00,822.00
             567.00,822.00 481.00,822.00 481.00,822.00
             481.00,822.00 473.42,858.00 473.42,858.00
             473.42,858.00 458.00,928.00 458.00,928.00
             458.00,928.00 442.00,928.00 442.00,928.00
             435.36,927.99 429.03,925.96 428.39,918.00
             428.39,918.00 433.00,895.00 433.00,895.00
             433.00,895.00 444.79,842.00 444.79,842.00
             444.79,842.00 486.42,654.00 486.42,654.00
             486.42,654.00 504.00,575.00 504.00,575.00
             504.00,575.00 544.00,575.00 544.00,575.00 Z
           M 670.00,575.00
           C 670.00,575.00 716.00,575.00 716.00,575.00
             760.80,575.53 794.93,610.30 795.00,655.00
             795.00,655.00 795.00,848.00 795.00,848.00
             794.93,894.20 759.86,927.93 714.00,928.00
             714.00,928.00 654.00,928.00 654.00,928.00
             643.09,927.98 639.02,923.91 639.00,913.00
             639.00,913.00 639.00,660.00 639.00,660.00
             639.00,660.00 639.00,600.00 639.00,600.00
             639.00,589.79 636.51,582.42 646.00,576.02
             651.59,574.15 663.61,575.00 670.00,575.00 Z
           M 860.00,868.00
           C 860.00,868.00 860.00,907.00 860.00,907.00
             860.00,912.11 861.03,919.86 857.69,923.94
             853.57,928.96 847.82,928.10 842.00,928.00
             832.08,927.81 829.02,922.00 829.00,913.00
             829.00,913.00 829.00,590.00 829.00,590.00
             829.02,581.00 832.08,575.19 842.00,575.00
             842.00,575.00 851.00,575.00 851.00,575.00
             859.56,575.06 858.68,575.97 863.69,590.00
             863.69,590.00 880.05,635.00 880.05,635.00
             880.05,635.00 926.95,764.00 926.95,764.00
             926.95,764.00 952.00,832.00 952.00,832.00
             952.00,832.00 952.00,635.00 952.00,635.00
             952.00,635.00 952.00,596.00 952.00,596.00
             952.00,590.89 950.97,583.14 954.31,579.06
             958.43,574.04 964.18,574.90 970.00,575.00
             979.92,575.19 982.98,581.00 983.00,590.00
             983.00,590.00 983.00,913.00 983.00,913.00
             982.98,922.00 979.92,927.81 970.00,928.00
             970.00,928.00 961.00,928.00 961.00,928.00
             951.83,927.94 953.29,926.46 948.19,913.00
             948.19,913.00 931.95,868.00 931.95,868.00
             931.95,868.00 885.05,739.00 885.05,739.00
             885.05,739.00 860.00,671.00 860.00,671.00
             860.00,671.00 860.00,868.00 860.00,868.00 Z
           M 1123.00,575.00
           C 1123.00,575.00 1141.58,659.00 1141.58,659.00
             1141.58,659.00 1182.21,842.00 1182.21,842.00
             1182.21,842.00 1192.88,890.00 1192.88,890.00
             1192.88,890.00 1198.58,917.00 1198.58,917.00
             1198.58,921.05 1194.82,926.62 1190.83,927.90
             1189.53,928.06 1186.45,928.00 1185.00,927.90
             1185.00,927.90 1169.00,927.90 1169.00,927.90
             1169.00,927.90 1152.58,854.00 1152.58,854.00
             1152.58,854.00 1146.00,822.00 1146.00,822.00
             1146.00,822.00 1060.00,822.00 1060.00,822.00
             1060.00,822.00 1052.42,858.00 1052.42,858.00
             1052.42,858.00 1037.00,928.00 1037.00,928.00
             1037.00,928.00 1021.00,928.00 1021.00,928.00
             1014.36,927.99 1008.03,925.96 1007.39,918.00
             1007.39,918.00 1012.00,895.00 1012.00,895.00
             1012.00,895.00 1023.79,842.00 1023.79,842.00
             1023.79,842.00 1065.42,654.00 1065.42,654.00
             1065.42,654.00 1083.00,575.00 1083.00,575.00
             1083.00,575.00 1123.00,575.00 1123.00,575.00 Z
           M 1249.00,868.00
           C 1249.00,868.00 1249.00,907.00 1249.00,907.00
             1249.00,912.11 1250.03,919.86 1246.69,923.94
             1242.57,928.96 1236.82,928.10 1231.00,928.00
             1221.08,927.81 1218.02,922.00 1218.00,913.00
             1218.00,913.00 1218.00,590.00 1218.00,590.00
             1218.02,581.00 1221.08,575.19 1231.00,575.00
             1231.00,575.00 1240.00,575.00 1240.00,575.00
             1248.56,575.06 1247.68,575.97 1252.69,590.00
             1252.69,590.00 1269.42,636.00 1269.42,636.00
             1269.42,636.00 1316.31,765.00 1316.31,765.00
             1316.31,765.00 1331.95,808.00 1331.95,808.00
             1331.95,808.00 1341.00,832.00 1341.00,832.00
             1341.00,832.00 1341.00,635.00 1341.00,635.00
             1341.00,635.00 1341.00,596.00 1341.00,596.00
             1341.00,590.89 1339.97,583.14 1343.31,579.06
             1347.43,574.04 1353.18,574.90 1359.00,575.00
             1368.92,575.19 1371.98,581.00 1372.00,590.00
             1372.00,590.00 1372.00,913.00 1372.00,913.00
             1371.98,922.00 1368.92,927.81 1359.00,928.00
             1359.00,928.00 1350.00,928.00 1350.00,928.00
             1340.83,927.94 1342.29,926.46 1337.19,913.00
             1337.19,913.00 1320.95,868.00 1320.95,868.00
             1320.95,868.00 1274.69,741.00 1274.69,741.00
             1274.69,741.00 1249.00,671.00 1249.00,671.00
             1249.00,671.00 1249.00,868.00 1249.00,868.00 Z
           M 1603.00,575.00
           C 1603.00,575.00 1621.58,659.00 1621.58,659.00
             1621.58,659.00 1662.21,842.00 1662.21,842.00
             1662.21,842.00 1673.42,893.00 1673.42,893.00
             1673.42,893.00 1678.57,917.00 1678.57,917.00
             1678.62,920.77 1675.20,925.96 1671.71,927.43
             1670.03,928.13 1666.87,928.00 1665.00,928.00
             1665.00,928.00 1649.00,928.00 1649.00,928.00
             1649.00,928.00 1632.58,854.00 1632.58,854.00
             1632.58,854.00 1626.00,822.00 1626.00,822.00
             1626.00,822.00 1540.00,822.00 1540.00,822.00
             1540.00,822.00 1532.65,857.00 1532.65,857.00
             1532.65,857.00 1517.00,928.00 1517.00,928.00
             1517.00,928.00 1501.00,928.00 1501.00,928.00
             1494.36,927.99 1488.03,925.96 1487.39,918.00
             1487.39,918.00 1492.00,895.00 1492.00,895.00
             1492.00,895.00 1503.79,842.00 1503.79,842.00
             1503.79,842.00 1545.42,654.00 1545.42,654.00
             1545.42,654.00 1563.00,575.00 1563.00,575.00
             1563.00,575.00 1603.00,575.00 1603.00,575.00 Z
           M 1909.00,575.00
           C 1917.41,575.06 1921.83,578.13 1922.00,587.00
             1922.00,587.00 1922.00,635.00 1922.00,635.00
             1922.00,635.00 1922.00,846.00 1922.00,846.00
             1922.02,856.12 1923.56,862.98 1928.26,872.00
             1931.28,877.79 1935.04,882.45 1940.00,886.70
             1947.69,893.29 1961.69,899.57 1972.00,898.82
             1997.95,896.93 2018.96,875.11 2019.00,849.00
             2019.00,849.00 2019.00,639.00 2019.00,639.00
             2019.00,639.00 2019.00,588.00 2019.00,588.00
             2019.24,575.33 2028.08,574.82 2038.00,575.00
             2047.73,575.18 2049.98,580.27 2050.00,589.00
             2050.00,589.00 2050.00,853.00 2050.00,853.00
             2049.99,862.59 2048.01,872.22 2044.14,881.00
             2039.13,892.36 2032.50,902.57 2023.00,910.70
             1991.70,937.50 1943.46,936.13 1914.17,906.83
             1887.76,880.42 1891.00,851.80 1891.00,818.00
             1891.00,818.00 1891.00,655.00 1891.00,655.00
             1891.00,655.00 1891.00,599.00 1891.00,599.00
             1891.00,589.08 1888.66,582.32 1898.00,576.02
             1902.11,574.64 1904.74,574.97 1909.00,575.00 Z
			 M 1826.00,852.00
           C 1826.00,852.00 1826.00,653.00 1826.00,653.00
             1825.96,626.74 1803.06,602.55 1776.00,604.09
             1747.72,605.70 1729.04,628.54 1729.00,656.00
             1729.00,656.00 1729.00,849.00 1729.00,849.00
             1729.26,870.63 1741.32,888.77 1762.00,896.00
             1762.00,896.00 1762.00,805.00 1762.00,805.00
             1762.01,798.34 1762.89,794.49 1769.00,790.60
             1772.32,788.49 1782.48,788.25 1786.00,790.02
             1788.26,791.16 1790.84,793.74 1791.98,796.00
             1793.19,798.41 1792.99,801.36 1793.00,804.00
             1793.00,804.00 1793.00,896.00 1793.00,896.00
             1812.05,890.57 1825.77,871.59 1826.00,852.00 Z
           M 697.00,897.00
           C 712.90,897.00 726.76,898.37 741.00,889.53
             755.85,880.32 763.80,864.17 764.00,847.00
             764.00,847.00 764.00,726.00 764.00,726.00
             764.00,726.00 764.00,695.00 764.00,695.00
             764.00,695.00 764.00,668.00 764.00,668.00
             764.00,645.77 763.02,629.12 743.00,614.79
             739.45,612.25 734.19,609.69 730.00,608.44
             724.17,606.70 718.06,606.01 712.00,606.00
             712.00,606.00 670.00,606.00 670.00,606.00
             670.00,606.00 670.00,897.00 670.00,897.00
             670.00,897.00 697.00,897.00 697.00,897.00 Z
           M 523.00,632.00
           C 523.00,632.00 512.42,681.00 512.42,681.00
             512.42,681.00 488.00,791.00 488.00,791.00
             488.00,791.00 560.00,791.00 560.00,791.00
             560.00,791.00 535.58,681.00 535.58,681.00
             535.58,681.00 525.00,632.00 525.00,632.00
             525.00,632.00 523.00,632.00 523.00,632.00 Z
           M 1102.00,632.00
           C 1102.00,632.00 1091.42,681.00 1091.42,681.00
             1091.42,681.00 1067.00,791.00 1067.00,791.00
             1067.00,791.00 1139.00,791.00 1139.00,791.00
             1139.00,791.00 1129.42,748.00 1129.42,748.00
             1129.42,748.00 1116.12,688.00 1116.12,688.00
             1116.12,688.00 1104.00,632.00 1104.00,632.00
             1104.00,632.00 1102.00,632.00 1102.00,632.00 Z
           M 1582.00,632.00
           C 1582.00,632.00 1571.42,681.00 1571.42,681.00
             1571.42,681.00 1554.58,757.00 1554.58,757.00
             1554.58,757.00 1547.00,791.00 1547.00,791.00
             1547.00,791.00 1619.00,791.00 1619.00,791.00
             1619.00,791.00 1595.35,685.00 1595.35,685.00
             1595.35,685.00 1584.00,632.00 1584.00,632.00
             1584.00,632.00 1582.00,632.00 1582.00,632.00 Z
           "/>


			 <path id="Selection1" fill="none" stroke="black" stroke-width="4"
			 d="
			 M 2103.00,575.00
           C 2112.73,575.18 2114.98,580.27 2115.00,589.00
             2115.00,589.00 2115.00,656.00 2115.00,656.00
             2115.00,656.00 2115.00,865.00 2115.00,865.00
             2115.00,865.00 2115.00,907.00 2115.00,907.00
             2115.00,912.11 2116.03,919.86 2112.69,923.94
             2108.57,928.96 2102.82,928.10 2097.00,928.00
             2087.08,927.81 2084.02,922.00 2084.00,913.00
             2084.00,913.00 2084.00,660.00 2084.00,660.00
             2084.00,660.00 2084.00,600.00 2084.00,600.00
             2084.00,589.79 2081.51,582.42 2091.00,576.02
             2095.06,574.66 2098.75,574.93 2103.00,575.00 Z
           M 2317.00,777.00
           C 2317.00,777.00 2317.00,808.00 2317.00,808.00
             2317.00,808.00 2317.00,853.00 2317.00,853.00
             2316.87,881.14 2297.36,909.17 2272.00,920.69
             2261.38,925.51 2248.64,927.98 2237.00,928.00
             2237.00,928.00 2164.00,928.00 2164.00,928.00
             2153.09,927.98 2149.02,923.91 2149.00,913.00
             2149.00,913.00 2149.00,653.00 2149.00,653.00
             2149.00,653.00 2149.00,590.00 2149.00,590.00
             2149.02,579.09 2153.09,575.02 2164.00,575.00
             2164.00,575.00 2223.00,575.00 2223.00,575.00
             2263.39,575.48 2295.39,605.18 2300.15,645.00
             2300.70,649.55 2301.16,651.15 2300.96,656.00
             2300.03,678.12 2291.84,694.85 2277.00,711.00
             2300.69,724.30 2316.96,749.59 2317.00,777.00 Z
			 M 2222.00,701.00
           C 2263.33,700.94 2285.25,652.67 2256.91,622.00
             2241.78,605.63 2227.45,606.00 2207.00,606.00
             2207.00,606.00 2180.00,606.00 2180.00,606.00
             2180.00,606.00 2180.00,701.00 2180.00,701.00
             2180.00,701.00 2222.00,701.00 2222.00,701.00 Z
			 M 2222.00,897.00
           C 2239.42,897.00 2252.01,898.15 2267.00,887.08
             2279.15,878.10 2285.98,863.97 2286.00,849.00
             2286.00,849.00 2286.00,798.00 2286.00,798.00
             2286.00,798.00 2286.00,779.00 2286.00,779.00
             2285.93,765.04 2278.98,751.16 2268.00,742.52
             2254.09,731.57 2239.58,732.00 2223.00,732.00
             2223.00,732.00 2180.00,732.00 2180.00,732.00
             2180.00,732.00 2180.00,897.00 2180.00,897.00
             2180.00,897.00 2222.00,897.00 2222.00,897.00 Z"/>

			 <path id="Selection2" fill="none" stroke="black" stroke-width="1"
			 d=""
            />
                <path id="Selection3" fill="none" stroke="black" stroke-width="1" d="M 2383.35,919.35
           C 2378.59,914.95 2378.47,895.83 2383.35,891.43
             2387.73,887.35 2396.66,888.51 2398.29,895.02
             2398.96,897.67 2397.72,899.92 2395.40,898.84
             2394.07,898.22 2392.65,895.83 2390.88,895.16
             2388.38,894.23 2386.51,895.82 2385.60,898.06
             2384.85,899.90 2382.92,918.39 2390.89,915.60
             2394.29,914.41 2392.75,912.08 2399.00,911.00
             2398.33,922.40 2388.62,924.10 2383.35,919.35 Z
                M 2421.00,910.00
           C 2420.93,915.00 2420.30,919.09 2414.98,921.11
             2409.76,923.09 2404.34,920.23 2402.65,914.98
             2401.47,911.33 2401.57,897.40 2403.31,894.04
             2404.65,891.47 2405.66,891.06 2408.02,889.74
             2422.72,886.30 2421.13,900.49 2421.00,910.00 Z
           M 2424.00,897.00
           C 2424.01,895.22 2423.85,892.06 2425.02,890.62
             2426.63,888.66 2433.70,888.84 2436.00,889.42
             2438.25,890.00 2439.15,890.78 2441.00,892.00
             2445.99,887.40 2453.63,888.32 2456.26,895.02
             2457.54,898.26 2457.00,916.27 2457.00,921.00
             2457.00,921.00 2452.00,921.00 2452.00,921.00
             2452.00,921.00 2452.00,903.00 2452.00,903.00
             2451.94,899.90 2451.04,893.12 2446.14,895.17
             2443.12,896.43 2443.05,900.26 2443.00,903.00
             2443.00,903.00 2443.00,921.00 2443.00,921.00
             2443.00,921.00 2438.00,921.00 2438.00,921.00
             2438.00,921.00 2438.00,903.00 2438.00,903.00
             2437.94,899.90 2437.04,893.12 2432.14,895.17
             2429.12,896.43 2429.05,900.26 2429.00,903.00
             2429.00,903.00 2429.00,921.00 2429.00,921.00
             2429.00,921.00 2424.00,921.00 2424.00,921.00
             2424.00,921.00 2424.00,897.00 2424.00,897.00 Z
           M 2408.02,896.31
           C 2406.60,898.43 2406.70,909.26 2407.23,911.96
             2407.77,914.79 2409.68,917.22 2412.87,916.16
             2416.30,915.01 2415.98,910.90 2416.00,908.00
             2416.04,902.65 2417.79,894.10 2410.14,894.66
             2409.65,894.98 2408.97,894.91 2408.02,896.31 Z
           M 2375.40,920.30
           C 2373.51,922.00 2369.25,920.35 2371.78,916.01
             2376.70,914.25 2377.26,918.63 2375.40,920.30 Z" />
            </svg>
