<?xml version="1.0" encoding="UTF-8" standalone="no"?>
<!DOCTYPE svg PUBLIC "-//W3C//DTD SVG 20010904//EN"
              "http://www.w3.org/TR/2001/REC-SVG-20010904/DTD/svg10.dtd">

<svg xmlns="http://www.w3.org/2000/svg"
     width="100%" height="100%"
     viewBox="0 0 1200 1480"
	 preserveAspectRatio="xMinYMin">
  <path id="Selection"
        fill="none" stroke="black" stroke-width="10"
        d="M 278.18,876.00
           C 274.03,880.74 271.22,886.76 267.66,892.00
             265.33,895.42 259.18,904.19 255.91,906.11
             252.48,908.12 248.56,907.08 247.66,902.95
             246.39,897.07 252.94,893.45 256.48,889.00
             256.48,889.00 267.51,872.00 267.51,872.00
             275.30,861.58 276.05,862.71 284.99,855.48
             292.01,849.80 293.00,842.07 299.91,844.87
             305.73,847.23 308.73,855.86 311.37,861.00
             314.31,866.71 316.90,868.34 320.21,873.00
             320.21,873.00 327.68,885.00 327.68,885.00
             329.48,887.29 331.23,889.31 334.00,890.41
             336.49,891.39 339.08,890.70 340.83,893.31
             343.40,897.18 342.13,909.97 334.01,907.92
             329.86,906.87 326.92,900.70 324.10,897.42
             314.00,885.66 317.45,887.77 311.21,879.00
             304.83,870.03 302.25,870.02 299.00,858.00
             299.00,858.00 297.00,858.00 297.00,858.00
             294.15,863.74 284.83,868.41 278.18,876.00 Z
           M 1034.00,1412.00
           C 1034.00,1412.00 944.00,1412.00 944.00,1412.00
             944.00,1412.00 929.00,1413.00 929.00,1413.00
             929.00,1413.00 854.00,1413.00 854.00,1413.00
             854.00,1413.00 839.00,1414.00 839.00,1414.00
             839.00,1414.00 794.00,1414.00 794.00,1414.00
             794.00,1414.00 777.00,1415.00 777.00,1415.00
             777.00,1415.00 733.00,1415.00 733.00,1415.00
             733.00,1415.00 718.00,1414.00 718.00,1414.00
             718.00,1414.00 696.00,1414.00 696.00,1414.00
             696.00,1414.00 679.00,1413.00 679.00,1413.00
             679.00,1413.00 597.00,1413.00 597.00,1413.00
             597.00,1413.00 583.00,1412.00 583.00,1412.00
             583.00,1412.00 549.00,1412.00 549.00,1412.00
             549.00,1412.00 532.00,1410.96 532.00,1410.96
             532.00,1410.96 518.00,1410.96 518.00,1410.96
             518.00,1410.96 506.00,1410.00 506.00,1410.00
             506.00,1410.00 479.00,1410.00 479.00,1410.00
             479.00,1410.00 464.00,1411.00 464.00,1411.00
             464.00,1411.00 447.00,1411.00 447.00,1411.00
             447.00,1411.00 426.00,1412.00 426.00,1412.00
             426.00,1412.00 416.00,1412.91 416.00,1412.91
             416.00,1412.91 387.00,1415.28 387.00,1415.28
             371.17,1417.26 354.97,1420.02 339.00,1420.00
             325.32,1419.98 324.02,1416.05 324.00,1403.00
             324.00,1403.00 324.00,1386.00 324.00,1386.00
             324.00,1386.00 322.00,1357.00 322.00,1357.00
             322.00,1357.00 322.00,1350.00 322.00,1350.00
             322.00,1350.00 321.09,1340.00 321.09,1340.00
             321.09,1340.00 317.17,1301.00 317.17,1301.00
             317.17,1301.00 315.83,1280.00 315.83,1280.00
             315.83,1280.00 312.00,1242.00 312.00,1242.00
             312.00,1242.00 312.00,1224.00 312.00,1224.00
             312.00,1224.00 311.00,1208.00 311.00,1208.00
             311.00,1208.00 307.72,1164.00 307.72,1164.00
             305.35,1147.30 304.23,1152.77 304.00,1133.00
             304.00,1133.00 302.94,1124.00 302.94,1124.00
             302.94,1124.00 302.94,1114.00 302.94,1114.00
             302.94,1114.00 297.61,1087.00 297.61,1087.00
             297.61,1087.00 295.28,1069.00 295.28,1069.00
             295.28,1069.00 293.91,1048.00 293.91,1048.00
             293.91,1048.00 292.00,1022.00 292.00,1022.00
             292.00,1022.00 292.00,1002.00 292.00,1002.00
             292.00,1002.00 291.00,987.00 291.00,987.00
             291.00,987.00 289.00,960.00 289.00,960.00
             289.00,960.00 289.00,945.00 289.00,945.00
             289.00,945.00 286.04,916.00 286.04,916.00
             286.04,916.00 286.04,900.00 286.04,900.00
             286.04,900.00 286.97,892.00 286.97,892.00
             286.97,892.00 288.00,878.00 288.00,878.00
             288.05,876.02 287.88,873.41 289.60,872.02
             291.01,870.87 296.98,870.27 299.00,870.00
             299.00,870.00 296.00,909.00 296.00,909.00
             296.00,909.00 298.91,937.00 298.91,937.00
             298.91,937.00 300.00,963.00 300.00,963.00
             300.00,963.00 302.00,994.00 302.00,994.00
             302.00,994.00 302.00,1012.00 302.00,1012.00
             302.00,1012.00 303.00,1032.00 303.00,1032.00
             303.00,1032.00 308.08,1086.00 308.08,1086.00
             308.08,1086.00 311.87,1104.00 311.87,1104.00
             311.87,1104.00 314.00,1135.00 314.00,1135.00
             314.00,1135.00 317.87,1162.00 317.87,1162.00
             317.87,1162.00 322.00,1211.00 322.00,1211.00
             322.00,1211.00 322.00,1232.00 322.00,1232.00
             322.00,1232.00 323.04,1244.00 323.04,1244.00
             323.04,1244.00 323.04,1253.00 323.04,1253.00
             323.04,1253.00 325.83,1275.00 325.83,1275.00
             325.83,1275.00 328.17,1306.00 328.17,1306.00
             328.17,1306.00 332.00,1344.00 332.00,1344.00
             332.00,1344.00 333.00,1367.00 333.00,1367.00
             333.00,1367.00 334.00,1381.00 334.00,1381.00
             334.00,1381.00 334.96,1394.00 334.96,1394.00
             334.96,1394.00 334.96,1410.00 334.96,1410.00
             334.96,1410.00 402.00,1403.04 402.00,1403.04
             402.00,1403.04 410.00,1403.04 410.00,1403.04
             410.00,1403.04 448.00,1401.00 448.00,1401.00
             448.00,1401.00 465.00,1400.00 465.00,1400.00
             465.00,1400.00 516.00,1400.00 516.00,1400.00
             516.00,1400.00 529.00,1401.00 529.00,1401.00
             529.00,1401.00 549.00,1401.00 549.00,1401.00
             549.00,1401.00 566.00,1402.00 566.00,1402.00
             566.00,1402.00 594.00,1402.00 594.00,1402.00
             594.00,1402.00 611.00,1403.00 611.00,1403.00
             611.00,1403.00 698.00,1403.00 698.00,1403.00
             698.00,1403.00 713.00,1404.00 713.00,1404.00
             713.00,1404.00 822.00,1404.00 822.00,1404.00
             822.00,1404.00 837.00,1403.00 837.00,1403.00
             837.00,1403.00 917.00,1403.00 917.00,1403.00
             917.00,1403.00 932.00,1402.00 932.00,1402.00
             932.00,1402.00 996.00,1402.00 996.00,1402.00
             996.00,1402.00 1015.00,1401.00 1015.00,1401.00
             1015.00,1401.00 1030.00,1402.00 1030.00,1402.00
             1030.00,1402.00 1050.30,1402.99 1050.30,1402.99
             1050.30,1402.99 1055.00,1413.00 1055.00,1413.00
             1055.00,1413.00 1034.00,1412.00 1034.00,1412.00 Z
           M 647.64,1158.00
           C 650.85,1153.32 655.40,1145.16 657.89,1140.00
             659.34,1137.00 661.39,1131.41 663.41,1129.15
             666.49,1125.70 670.90,1125.34 675.00,1127.09
             679.94,1129.19 696.01,1143.68 699.68,1148.00
             699.68,1148.00 706.46,1157.00 706.46,1157.00
             706.46,1157.00 718.91,1170.00 718.91,1170.00
             718.91,1170.00 733.04,1186.00 733.04,1186.00
             743.79,1197.24 745.08,1195.93 757.00,1203.69
             757.00,1203.69 770.00,1212.58 770.00,1212.58
             774.88,1215.62 778.39,1217.37 783.00,1221.09
             799.47,1234.39 795.17,1235.01 816.00,1244.78
             820.00,1246.66 827.50,1250.21 831.99,1249.52
             837.02,1248.74 841.61,1239.07 844.66,1235.00
             844.66,1235.00 858.17,1218.04 858.17,1218.04
             858.17,1218.04 865.91,1210.91 865.91,1210.91
             869.95,1206.87 873.49,1201.60 876.88,1197.00
             876.88,1197.00 913.65,1150.00 913.65,1150.00
             913.65,1150.00 923.65,1137.00 923.65,1137.00
             923.65,1137.00 933.05,1122.00 933.05,1122.00
             933.05,1122.00 942.13,1108.00 942.13,1108.00
             942.13,1108.00 948.45,1096.00 948.45,1096.00
             948.45,1096.00 960.58,1078.00 960.58,1078.00
             960.58,1078.00 987.32,1034.00 987.32,1034.00
             987.32,1034.00 1001.36,1011.00 1001.36,1011.00
             1001.36,1011.00 1022.11,983.00 1022.11,983.00
             1023.83,980.70 1026.93,976.50 1028.09,974.00
             1029.39,971.18 1029.87,966.63 1034.00,966.63
             1035.41,966.63 1036.61,967.35 1037.57,968.32
             1042.20,972.99 1038.34,978.75 1035.41,983.00
             1035.41,983.00 1018.72,1005.00 1018.72,1005.00
             1018.72,1005.00 1008.46,1020.00 1008.46,1020.00
             1008.46,1020.00 999.00,1036.00 999.00,1036.00
             999.00,1036.00 969.58,1084.00 969.58,1084.00
             969.58,1084.00 957.45,1102.00 957.45,1102.00
             957.45,1102.00 950.57,1115.00 950.57,1115.00
             950.57,1115.00 932.66,1143.00 932.66,1143.00
             932.66,1143.00 884.42,1205.00 884.42,1205.00
             874.16,1219.21 874.10,1216.88 864.17,1228.00
             864.17,1228.00 851.72,1244.00 851.72,1244.00
             846.84,1250.97 843.61,1259.27 834.00,1260.44
             827.94,1261.19 817.45,1257.41 812.00,1254.76
             805.34,1251.51 801.34,1250.44 795.00,1245.96
             795.00,1245.96 776.00,1229.62 776.00,1229.62
             776.00,1229.62 731.17,1199.56 731.17,1199.56
             731.17,1199.56 702.29,1169.00 702.29,1169.00
             702.29,1169.00 690.91,1155.00 690.91,1155.00
             684.81,1148.42 677.92,1142.68 671.00,1137.00
             667.58,1144.96 660.42,1159.26 655.39,1166.00
             651.44,1171.30 646.68,1173.82 644.65,1178.04
             644.65,1178.04 642.00,1186.00 642.00,1186.00
             642.00,1186.00 638.78,1195.00 638.78,1195.00
             635.75,1205.55 634.16,1215.88 629.54,1226.00
             625.12,1235.69 622.14,1249.22 609.00,1248.22
             595.99,1247.22 587.05,1237.33 578.00,1229.17
             578.00,1229.17 563.00,1216.00 563.00,1216.00
             563.00,1216.00 552.17,1205.01 552.17,1205.01
             550.52,1203.23 548.62,1200.44 545.96,1200.41
             542.03,1200.38 533.04,1208.84 530.09,1211.58
             517.47,1223.27 506.54,1236.81 495.57,1250.00
             495.57,1250.00 463.72,1285.83 463.72,1285.83
             463.72,1285.83 451.00,1297.16 451.00,1297.16
             437.41,1309.30 423.36,1321.30 411.28,1335.00
             411.28,1335.00 395.17,1352.00 395.17,1352.00
             395.17,1352.00 376.56,1374.00 376.56,1374.00
             373.82,1377.25 364.72,1387.87 360.99,1388.67
             355.42,1389.86 351.92,1384.80 356.43,1379.28
             356.43,1379.28 368.83,1366.00 368.83,1366.00
             368.83,1366.00 389.00,1343.00 389.00,1343.00
             389.00,1343.00 420.00,1310.04 420.00,1310.04
             420.00,1310.04 452.00,1281.91 452.00,1281.91
             461.67,1272.91 470.16,1263.02 478.73,1253.00
             478.73,1253.00 517.00,1209.00 517.00,1209.00
             523.00,1202.97 532.26,1194.17 540.00,1190.65
             551.35,1185.48 555.78,1192.76 563.00,1200.00
             570.10,1207.12 587.69,1224.54 595.00,1230.10
             598.08,1232.45 605.05,1237.65 608.98,1237.36
             614.33,1236.97 616.89,1228.21 618.60,1224.00
             621.41,1217.13 624.41,1211.56 625.68,1204.00
             625.68,1204.00 627.01,1194.00 627.01,1194.00
             628.45,1187.30 629.67,1184.24 630.00,1177.00
             630.00,1177.00 634.00,1178.00 634.00,1178.00
             635.93,1164.37 640.39,1168.55 647.64,1158.00 Z
           M 1042.86,1360.09
           C 1046.76,1362.69 1044.85,1364.90 1050.06,1368.96
             1063.53,1379.48 1068.70,1380.85 1079.57,1396.00
             1081.65,1398.89 1086.24,1405.53 1086.47,1409.00
             1086.77,1413.78 1082.22,1414.77 1079.00,1416.87
             1079.00,1416.87 1074.00,1420.75 1074.00,1420.75
             1064.76,1428.32 1054.07,1434.46 1046.68,1444.00
             1043.09,1448.63 1038.31,1459.68 1033.00,1461.16
             1029.06,1462.25 1025.95,1458.94 1026.76,1455.00
             1027.36,1452.03 1030.49,1448.50 1032.23,1446.00
             1036.02,1440.55 1038.21,1436.13 1043.17,1431.17
             1043.17,1431.17 1062.00,1416.35 1062.00,1416.35
             1064.49,1414.43 1072.58,1408.98 1072.34,1405.71
             1072.17,1403.46 1067.30,1397.82 1065.71,1396.00
             1055.63,1384.41 1048.65,1381.64 1037.00,1373.12
             1032.28,1369.66 1022.26,1365.23 1029.15,1359.02
             1033.29,1357.55 1039.03,1357.54 1042.86,1360.09 Z" />
</svg>
