<?xml version="1.0" encoding="UTF-8" standalone="no"?>
<?xml-stylesheet type="text/css" href="../_css/style.css"?>
<!DOCTYPE svg PUBLIC "-//W3C//DTD SVG 20010904//EN"
              "http://www.w3.org/TR/2001/REC-SVG-20010904/DTD/svg10.dtd">

<svg xmlns="http://www.w3.org/2000/svg"
     width="100%" height="100%"
     viewBox="0 0 600 910"
	 preserveAspectRatio="xMinYMin">
  <path id="selection-wifi"
        fill="none" stroke="black" stroke-width="1"
        d="M 357.00,385.92
           C 364.88,380.12 373.41,374.99 382.00,370.31
             393.38,364.12 411.50,357.83 424.00,353.50
             461.65,340.43 491.31,333.95 531.00,330.17
             531.00,330.17 553.00,328.91 553.00,328.91
             553.00,328.91 584.00,326.21 584.00,326.21
             586.62,325.97 591.61,325.86 594.00,326.21
             597.33,327.18 599.16,328.94 603.00,328.84
             608.27,328.71 608.92,325.69 618.00,326.04
             626.95,326.38 654.95,330.86 664.00,333.04
             664.00,333.04 687.00,340.33 687.00,340.33
             687.00,340.33 704.00,345.69 704.00,345.69
             704.00,345.69 747.00,363.01 747.00,363.01
             757.32,367.30 774.57,377.05 785.00,378.00
             785.00,378.00 764.00,422.00 764.00,422.00
             764.00,422.00 729.00,406.86 729.00,406.86
             710.20,398.56 670.38,383.23 651.00,378.65
             627.55,373.12 612.58,372.96 589.00,373.00
             589.00,373.00 558.00,375.96 558.00,375.96
             558.00,375.96 550.00,375.96 550.00,375.96
             550.00,375.96 516.00,379.42 516.00,379.42
             479.29,384.61 443.96,394.69 410.00,409.58
             402.42,412.90 391.51,419.43 385.00,424.52
             382.36,426.57 378.66,431.14 375.04,429.83
             372.49,428.91 368.39,423.27 366.65,421.00
             366.65,421.00 347.00,394.00 347.00,394.00
             347.00,394.00 357.00,385.92 357.00,385.92 Z
           M 466.00,508.48
           C 477.09,502.67 486.41,499.93 498.00,495.92
             539.43,481.58 575.64,478.68 619.00,482.83
             635.43,484.40 651.83,486.05 668.00,489.66
             677.81,491.86 691.93,496.60 701.00,500.89
             707.32,503.88 713.06,508.59 720.00,510.00
             720.00,510.00 708.25,535.00 708.25,535.00
             708.25,535.00 697.00,556.00 697.00,556.00
             687.92,543.63 662.80,536.39 648.00,533.92
             607.83,527.22 562.24,524.28 523.00,537.35
             511.41,541.21 496.17,545.48 486.00,551.87
             482.45,554.11 472.67,562.52 469.01,561.85
             465.68,561.23 461.66,555.62 459.65,553.00
             454.26,545.95 445.39,532.40 443.00,524.00
             450.54,518.66 457.80,512.79 466.00,508.48 Z
           M 574.00,676.90
           C 566.66,678.69 554.68,684.40 548.00,688.15
             545.12,689.77 540.40,693.29 537.09,691.87
             534.39,690.71 531.33,685.49 529.67,683.00
             529.67,683.00 516.10,663.00 516.10,663.00
             514.49,660.68 509.98,656.52 511.88,653.65
             512.99,651.98 519.82,649.35 522.00,648.22
             530.52,643.79 538.92,638.90 548.00,635.66
             569.12,628.13 591.80,625.27 614.00,629.46
             614.00,629.46 655.00,642.00 655.00,642.00
             652.77,649.90 638.64,676.85 634.00,685.00
             612.57,677.86 597.14,671.25 574.00,676.90 Z
           M 610.00,753.13
           C 610.00,753.13 616.00,755.30 616.00,755.30
             617.89,756.27 630.04,765.53 631.32,767.17
             633.09,769.47 633.96,772.25 635.01,774.91
             638.62,784.12 639.12,782.15 639.00,793.00
             638.77,812.59 626.09,829.46 607.00,834.37
             603.08,835.38 600.11,836.15 596.00,835.91
             569.70,834.38 557.51,812.09 558.92,788.00
             559.61,776.09 562.44,766.91 571.44,758.38
             578.40,751.77 585.06,750.77 594.00,749.42
             602.80,748.38 602.45,750.31 610.00,753.13 Z" />
</svg>
